<?xml version="1.0" encoding="utf-8"?>
<!-- Generator: Adobe Illustrator 22.0.0, SVG Export Plug-In . SVG Version: 6.00 Build 0)  -->
<svg version="1.1" id="Layer_1" xmlns="http://www.w3.org/2000/svg" xmlns:xlink="http://www.w3.org/1999/xlink" x="0px" y="0px"
	 viewBox="0 0 318.6 318.6" style="enable-background:new 0 0 318.6 318.6;" xml:space="preserve">
<style type="text/css">
	.st0{fill:url(#SVGID_1_);}
	.st1{fill:url(#SVGID_2_);}
	.st2{fill:url(#SVGID_3_);}
	.st3{fill:url(#SVGID_4_);}
	.st4{fill:url(#SVGID_5_);}
	.st5{fill:url(#SVGID_6_);}
	.st6{fill:url(#SVGID_7_);}
	.st7{fill:url(#SVGID_8_);}
	.st8{fill:url(#SVGID_9_);}
	.st9{fill:url(#SVGID_10_);}
</style>
<g>
	<linearGradient id="SVGID_1_" gradientUnits="userSpaceOnUse" x1="32.2304" y1="81.0757" x2="278.2267" y2="81.0757">
		<stop  offset="3.089112e-03" style="stop-color:#FF8C4D"/>
		<stop  offset="0.3886" style="stop-color:#FFA14D"/>
		<stop  offset="0.9322" style="stop-color:#FFA94C"/>
	</linearGradient>
	<path class="st0" d="M71.5,151.2c4-45,41.8-80.4,87.9-80.4c0.4,0,118.9,0,118.9,0C251.2,34.5,208.1,11,159.4,11
		c-54,0-101.3,28.9-127.1,72.2L71.5,151.2z"/>
	<linearGradient id="SVGID_2_" gradientUnits="userSpaceOnUse" x1="272.8078" y1="79.0224" x2="222.4842" y2="265.9386">
		<stop  offset="0" style="stop-color:#FFA94C"/>
		<stop  offset="1" style="stop-color:#FFBB4E"/>
	</linearGradient>
	<path class="st1" d="M209.6,86.6c22.8,15.9,37.3,42.4,37.6,72.4c0.3,25.7-13.7,47.3-13.7,47.3L176,306.1
		c73.8-8.4,131.1-71,131.1-147.1c0-26.3-6.9-51-18.9-72.4H209.6z"/>
	<linearGradient id="SVGID_3_" gradientUnits="userSpaceOnUse" x1="11.3282" y1="203.4739" x2="196.714" y2="203.4739">
		<stop  offset="0" style="stop-color:#FF894C"/>
		<stop  offset="1" style="stop-color:#FCB44F"/>
	</linearGradient>
	<path class="st2" d="M196.7,239c-11.3,5.3-24,8.3-37.4,8.3c-35,0-65.3-20.4-79.5-50L23.6,99.9C15.7,118,11.3,138,11.3,159
		c0,81.1,65.2,147,146.1,148L196.7,239z"/>
	<g>
		<g>
			<linearGradient id="SVGID_4_" gradientUnits="userSpaceOnUse" x1="88.7874" y1="159.0175" x2="229.4648" y2="159.0175">
				<stop  offset="3.089112e-03" style="stop-color:#FF8C4D"/>
				<stop  offset="0.3886" style="stop-color:#FFA14D"/>
				<stop  offset="0.9322" style="stop-color:#FFA94C"/>
			</linearGradient>
			<path class="st3" d="M159.1,229.4c-4.3,0-8.6-0.4-12.8-1.2c-1.9-0.3-3.1-2.1-2.8-4s2.1-3.1,4-2.8c3.8,0.7,7.7,1.1,11.6,1.1
				c35,0,63.5-28.5,63.5-63.5s-28.5-63.5-63.5-63.5S95.6,124,95.6,159c0,5.2,0.6,10.3,1.9,15.3c0.2,0.9,0.5,1.9,0.8,2.8
				c0.5,1.8-0.5,3.7-2.3,4.3c-1.8,0.5-3.7-0.5-4.3-2.3c-0.3-1-0.6-2.1-0.9-3.1c-1.4-5.5-2.1-11.2-2.1-17c0-38.8,31.6-70.3,70.3-70.3
				c38.8,0,70.3,31.6,70.3,70.3C229.5,197.8,197.9,229.4,159.1,229.4z"/>
		</g>
		<linearGradient id="SVGID_5_" gradientUnits="userSpaceOnUse" x1="132.6572" y1="144.1492" x2="176.0154" y2="144.1492">
			<stop  offset="3.089112e-03" style="stop-color:#FF8C4D"/>
			<stop  offset="0.3886" style="stop-color:#FFA14D"/>
			<stop  offset="0.9322" style="stop-color:#FFA94C"/>
		</linearGradient>
		<path class="st4" d="M132.9,140.6h43c0.1,0,0.2,0.1,0.2,0.2v6.8c0,0.1-0.1,0.2-0.2,0.2h-43c-0.1,0-0.2-0.1-0.2-0.2v-6.8
			C132.7,140.6,132.7,140.6,132.9,140.6z"/>
		<g>
			<linearGradient id="SVGID_6_" gradientUnits="userSpaceOnUse" x1="106.8417" y1="159.0173" x2="210.0782" y2="159.0173">
				<stop  offset="3.089112e-03" style="stop-color:#FF8C4D"/>
				<stop  offset="0.3886" style="stop-color:#FFA14D"/>
				<stop  offset="0.9322" style="stop-color:#FFA94C"/>
			</linearGradient>
			<path class="st5" d="M159.1,211.3c-28.8,0-52.3-23.5-52.3-52.3s23.5-52.3,52.3-52.3c15.4,0,30,6.8,40,18.6
				c1.1,1.3,2.1,2.7,3.1,4.1c1.1,1.6,0.7,3.7-0.9,4.8c-1.6,1.1-3.7,0.7-4.8-0.9c-0.8-1.2-1.8-2.4-2.7-3.6
				c-8.7-10.3-21.3-16.2-34.7-16.2c-25,0-45.4,20.4-45.4,45.4c0,25,20.4,45.4,45.4,45.4c19.5,0,36.8-12.4,43-30.8
				c0.4-1.3,0.8-2.7,1.2-4c0.4-1.8,2.3-3,4.1-2.5c1.8,0.4,3,2.3,2.5,4.1c-0.4,1.6-0.8,3.1-1.3,4.6
				C201.4,197,181.5,211.3,159.1,211.3z"/>
		</g>
		<g>
			<linearGradient id="SVGID_7_" gradientUnits="userSpaceOnUse" x1="143.1694" y1="158.8428" x2="175.5468" y2="158.8428">
				<stop  offset="3.089112e-03" style="stop-color:#FF8C4D"/>
				<stop  offset="0.3886" style="stop-color:#FFA14D"/>
				<stop  offset="0.9322" style="stop-color:#FFA94C"/>
			</linearGradient>
			<path class="st6" d="M160.9,186.7c-3.4,0-6.7-0.8-9.5-2.6c-4-2.5-6.8-6.3-7.9-10.8c-0.3-1.1-0.4-2.2-0.4-3.6l0-35.2
				c0-1.9,1.5-3.4,3.4-3.4s3.4,1.5,3.4,3.4v35.1c0,0.8,0.1,1.5,0.2,2.1c0.6,2.7,2.3,5.1,4.8,6.6c4.4,2.7,11.3,1.8,14.5-1.9
				c1.3-1.4,3.4-1.6,4.8-0.3c1.4,1.3,1.6,3.4,0.3,4.8C171.4,184.6,166.2,186.7,160.9,186.7z"/>
		</g>
	</g>
	<linearGradient id="SVGID_8_" gradientUnits="userSpaceOnUse" x1="223.7744" y1="275.7947" x2="223.8233" y2="128.6135">
		<stop  offset="3.089112e-03" style="stop-color:#FF8C4D"/>
		<stop  offset="0.3886" style="stop-color:#FFA14D"/>
		<stop  offset="1" style="stop-color:#FFBB4E"/>
	</linearGradient>
	<path class="st7" d="M247.1,159c0.6,25.8-15.1,49.7-15.1,49.7l-55.7,97.3c53.5-11.1,95.1-60.9,95.1-117.6
		c0-43.5-26.4-81.4-61.5-101.8l0,0C232.6,102.6,246.5,129.1,247.1,159z"/>
	<linearGradient id="SVGID_9_" gradientUnits="userSpaceOnUse" x1="174.6288" y1="268.1905" x2="-17.0341" y2="119.1739">
		<stop  offset="3.089112e-03" style="stop-color:#FF8C4D"/>
		<stop  offset="0.3886" style="stop-color:#FFA14D"/>
		<stop  offset="0.9322" style="stop-color:#FFA94C"/>
	</linearGradient>
	<path class="st8" d="M115,235.3c-12.5-7.1-21.7-17.2-29.1-28.5l-0.5-0.7c-1.4-2.1-3.3-4.3-4.4-6.5L23.6,99.9
		c-16.8,52,4.6,114.1,53.9,142.2c37.8,21.5,84.2,17.3,119.2-3.1l0,0C171.6,250.9,141.1,250.2,115,235.3z"/>
	<linearGradient id="SVGID_10_" gradientUnits="userSpaceOnUse" x1="212.7511" y1="59.0347" x2="60.0789" y2="111.2698">
		<stop  offset="3.089114e-03" style="stop-color:#FF8C4D"/>
		<stop  offset="0.4296" style="stop-color:#FCB44F"/>
		<stop  offset="1" style="stop-color:#FFBB4E"/>
	</linearGradient>
	<path class="st9" d="M114,83.4c23.5-14.3,49.4-12.5,49.4-12.5l114.9,0c-36.4-40.7-100.8-52.9-149.9-24.4
		C90.7,68.3,71.5,110,71.5,151.2l0,0C73.2,123,90.6,97.6,114,83.4z"/>
</g>
</svg>
