<?xml version="1.0" encoding="utf-8"?>
<!-- Generator: Adobe Illustrator 22.0.0, SVG Export Plug-In . SVG Version: 6.00 Build 0)  -->
<svg version="1.1" id="Layer_1" xmlns:ev="http://www.w3.org/2001/xml-events"
	 xmlns="http://www.w3.org/2000/svg" xmlns:xlink="http://www.w3.org/1999/xlink" x="0px" y="0px" viewBox="0 0 1672.1 241.2"
	 style="enable-background:new 0 0 1672.1 241.2;" xml:space="preserve">
<style type="text/css">
	.st0{fill:#161616;}
	.st1{display:none;fill:#161616;}
	.st2{fill:#4385FF;stroke:#4385FF;stroke-linecap:round;stroke-linejoin:round;}
	.st3{fill:#4385FF;}
	.st4{fill:url(#SVGID_1_);}
	.st5{fill:url(#SVGID_2_);}
	.st6{fill:url(#SVGID_3_);}
	.st7{fill:url(#SVGID_4_);}
	.st8{fill:url(#SVGID_5_);}
	.st9{fill:url(#SVGID_6_);}
	.st10{fill:url(#SVGID_7_);}
	.st11{fill:url(#SVGID_8_);}
	.st12{fill:url(#SVGID_9_);}
	.st13{fill:url(#SVGID_10_);}
</style>
<g>
	<path class="st0" d="M1157.7,121.9c-6.8-4.5-14.3-7.7-21.4-11.7c-4.6-2.6-9.5-4.9-13.5-8.2c-6.8-5.6-5.4-16.6,1.7-21.4
		c10.2-6.8,27.1-3,28.9,10.9c0,0.3,0.3,0.5,0.6,0.5h15.4c0.4,0,0.7-0.3,0.6-0.7c-0.8-9.6-4.5-17.6-11.3-22.7
		c-6.5-4.9-13.9-7.5-21.8-7.5c-40.7,0-44.4,43.1-22.5,56.7c2.5,1.6,24,12.4,31.6,17.1s10,13.3,6.7,20.1c-3,6.2-10.8,10.5-18.6,10
		c-8.5-0.5-15.1-5.1-17.4-12.3c-0.4-1.3-0.6-3.8-0.6-4.9c0-0.3-0.3-0.6-0.6-0.6h-16.7c-0.3,0-0.6,0.3-0.6,0.6
		c0,12.1,3,18.8,11.2,24.9c7.7,5.8,16.1,8.2,24.8,8.2c22.8,0,34.6-12.9,37-26.3C1173.3,141.5,1169.4,129.7,1157.7,121.9z"/>
	<path class="st0" d="M715.2,120.4c0-37.9,17.4-58.2,42.6-58.2c25.2,0,42.6,20.3,42.6,58.2c0,38.8-17.4,59.2-42.6,59.2
		C732.5,179.7,715.2,159.2,715.2,120.4z M775.7,120.4c0-23.5-7-36.1-18-36.1c-11,0-18,12.5-18,36.1c0,24.4,7,37.1,18,37.1
		C768.8,157.5,775.7,144.9,775.7,120.4z"/>
	<path class="st0" d="M677.5,63.3h-7.4H662c-0.3,0-0.5,0.2-0.6,0.4l-13.7,45.2c-0.2,0.6-1,0.6-1.2,0l-13.7-45.2
		c-0.1-0.3-0.3-0.4-0.6-0.4h-8.1h-7.4h-10c-0.3,0-0.6,0.3-0.6,0.6v115.4c0,0.3,0.3,0.6,0.6,0.6h16.7c0.3,0,0.6-0.3,0.6-0.6V91.6
		c0-0.7,1-0.8,1.2-0.2l13.8,45.5l1,3.2c0.1,0.3,0.3,0.4,0.6,0.4h12.8c0.3,0,0.5-0.2,0.6-0.4l1-3.2l13.8-45.5
		c0.2-0.7,1.2-0.5,1.2,0.2v87.7c0,0.3,0.3,0.6,0.6,0.6h16.7c0.3,0,0.6-0.3,0.6-0.6V63.9c0-0.3-0.3-0.6-0.6-0.6L677.5,63.3
		L677.5,63.3z"/>
	<path class="st0" d="M902,63.3c-0.3,0-0.5,0.2-0.6,0.4l-13.7,45.2c-0.2,0.6-1,0.6-1.2,0l-13.7-45.2c-0.1-0.3-0.3-0.4-0.6-0.4h-25.4
		c-0.3,0-0.6,0.3-0.6,0.6v115.4c0,0.3,0.3,0.6,0.6,0.6h16.7c0.3,0,0.6-0.3,0.6-0.6V91.6c0-0.7,1-0.8,1.2-0.2l13.8,45.5l1,3.2
		c0.1,0.3,0.3,0.4,0.6,0.4h12.8c0.3,0,0.5-0.2,0.6-0.4l1-3.2l13.8-45.5c0.2-0.7,1.2-0.5,1.2,0.2v87.7c0,0.3,0.3,0.6,0.6,0.6h16.7
		c0.3,0,0.6-0.3,0.6-0.6V63.9c0-0.3-0.3-0.6-0.6-0.6L902,63.3L902,63.3z"/>
	<path class="st0" d="M449.5,63.3h-31.1h-16.7h-31.1c-0.3,0-0.6,0.3-0.6,0.6v14.4c0,0.3,0.3,0.6,0.6,0.6h30.5v100.4
		c0,0.3,0.3,0.6,0.6,0.6h16.7c0.3,0,0.6-0.3,0.6-0.6V78.9h30.5c0.3,0,0.6-0.3,0.6-0.6V63.9C450.1,63.6,449.9,63.3,449.5,63.3z"/>
	<path class="st0" d="M486.5,122.7c0-37.9,17.4-58.2,42.6-58.2c25.2,0,42.6,20.3,42.6,58.2c0,38.8-17.4,59.2-42.6,59.2
		C503.8,182,486.5,161.5,486.5,122.7z M547.1,122.7c0-23.5-7-36.1-18-36.1c-11,0-18,12.5-18,36.1c0,24.4,7,37.1,18,37.1
		C540.1,159.8,547.1,147.2,547.1,122.7z"/>
	<path class="st1" d="M785.1,179.9h15.2c0.4,0,0.7-0.4,0.6-0.8L769.5,63.3c-0.1-0.3-0.3-0.4-0.6-0.4h-5.8h-10.2h-5.8
		c-0.3,0-0.5,0.2-0.6,0.4l-31.4,115.8c-0.1,0.4,0.2,0.8,0.6,0.8h15.2c0.3,0,0.5-0.2,0.6-0.4l9.1-33.7c0.1-0.3,0.3-0.4,0.6-0.4h33.6
		c0.3,0,0.5,0.2,0.6,0.4l9.1,33.7C784.6,179.7,784.9,179.9,785.1,179.9z M745.2,128.9l12.2-45.1c0.2-0.6,1-0.6,1.2,0l12.2,45.1
		c0.1,0.4-0.2,0.8-0.6,0.8h-24.4C745.4,129.7,745.1,129.3,745.2,128.9z"/>
	<path class="st0" d="M1044.3,179.9h15.2c0.4,0,0.7-0.4,0.6-0.8l-31.4-115.8c-0.1-0.3-0.3-0.4-0.6-0.4h-5.8h-10.2h-5.8
		c-0.3,0-0.5,0.2-0.6,0.4l-31.4,115.8c-0.1,0.4,0.2,0.8,0.6,0.8h15.2c0.3,0,0.5-0.2,0.6-0.4l9.1-33.7c0.1-0.3,0.3-0.4,0.6-0.4h33.6
		c0.3,0,0.5,0.2,0.6,0.4l9.1,33.7C1043.8,179.7,1044,179.9,1044.3,179.9z M1004.4,128.9l12.2-45.1c0.2-0.6,1-0.6,1.2,0l12.2,45.1
		c0.1,0.4-0.2,0.8-0.6,0.8H1005C1004.6,129.7,1004.3,129.3,1004.4,128.9z"/>
	<path class="st1" d="M510.8,162.8V127c0-0.3,0.3-0.6,0.6-0.6h44.5c0.3,0,0.6-0.3,0.6-0.6v-14.4c0-0.3-0.3-0.6-0.6-0.6h-44.5
		c-0.3,0-0.6-0.3-0.6-0.6V79.6c0-0.3,0.3-0.6,0.6-0.6H562c0.3,0,0.6-0.3,0.6-0.6V64c0-0.3-0.3-0.6-0.6-0.6h-51.2h-17.3
		c-0.3,0-0.6,0.3-0.6,0.6v15v31.9v15.6v37v15.8c0,0.3,0.3,0.6,0.6,0.6h17.3h53.3c0.3,0,0.6-0.3,0.6-0.6v-15.2c0-0.3-0.3-0.6-0.6-0.6
		h-52.8C511,163.4,510.8,163.2,510.8,162.8z"/>
	<path class="st0" d="M1310.3,178.9l-57.8-59.7c-0.2-0.2-0.2-0.6,0-0.8l52-54c0.4-0.4,0.1-1-0.4-1h-21.3c-0.2,0-0.3,0.1-0.4,0.2
		l-44.1,45.8c-0.4,0.4-1,0.1-1-0.4V64c0-0.3-0.3-0.6-0.6-0.6H1220c-0.3,0-0.6,0.3-0.6,0.6v115.4c0,0.3,0.3,0.6,0.6,0.6h16.7
		c0.3,0,0.6-0.3,0.6-0.6v-50.8c0-0.5,0.7-0.8,1-0.4l50,51.6c0.1,0.1,0.3,0.2,0.4,0.2h21.3C1310.4,179.9,1310.7,179.2,1310.3,178.9z"
		/>
</g>
<g>
	<path class="st2" d="M1409.7,92.6V32.1h19.3c2.9,0,5.6,0.4,8.2,1c2.5,0.6,4.7,1.6,6.6,2.9c1.9,1.3,3.4,3,4.5,5.1s1.6,4.5,1.6,7.3
		c0,3-0.9,5.5-2.5,7.7c-1.6,2.1-3.8,3.8-6.6,4.9c1.7,0.5,3.2,1.1,4.5,2s2.4,1.9,3.3,3.1s1.6,2.6,2,4c0.5,1.5,0.7,3.1,0.7,4.7
		c0,2.9-0.5,5.4-1.6,7.6s-2.5,4-4.4,5.5s-4.1,2.6-6.6,3.3c-2.6,0.8-5.3,1.2-8.3,1.2h-20.7V92.6z M1419.8,57.6h9.6
		c1.5,0,2.9-0.2,4.2-0.6c1.3-0.4,2.4-0.9,3.3-1.7c0.9-0.7,1.7-1.6,2.2-2.7c0.6-1.1,0.8-2.3,0.8-3.7c0-1.5-0.3-2.8-0.8-3.9
		c-0.5-1.1-1.3-2-2.2-2.7c-1-0.7-2.1-1.2-3.4-1.5s-2.7-0.5-4.3-0.5h-9.5v17.3H1419.8z M1419.8,65.2v19.3h10.9c1.6,0,3-0.3,4.3-0.7
		c1.3-0.5,2.4-1.1,3.4-1.9c0.9-0.8,1.7-1.8,2.2-2.9c0.5-1.2,0.8-2.5,0.8-3.9c0-1.5-0.2-2.9-0.7-4.1s-1.1-2.2-2-3.1
		c-0.9-0.8-2-1.5-3.2-1.9c-1.3-0.5-2.7-0.7-4.3-0.7h-11.4V65.2z"/>
	<path class="st2" d="M1506.3,65.5h-24.9v19h29.1v8.1h-39.1V32.1h38.8v8.2h-28.8v17.1h24.9V65.5z"/>
	<path class="st2" d="M1574.8,40.4h-18.6v52.2h-9.9V40.4h-18.4v-8.2h46.9V40.4z"/>
	<path class="st2" d="M1615.2,78.6h-18.9l-4.2,14h-10.3l19.6-60.5h8.8l19.3,60.5h-10.3L1615.2,78.6z M1598.9,70h13.9l-6.9-23.7
		L1598.9,70z"/>
</g>
<path class="st3" d="M1644.3,8c10.7,0,19.5,8.7,19.5,19.5v69.8c0,10.7-8.7,19.5-19.5,19.5H1395c-10.7,0-19.5-8.7-19.5-19.5V27.5
	c0-10.7,8.7-19.5,19.5-19.5H1644.3 M1644.3,0H1395c-15.2,0-27.5,12.3-27.5,27.5v69.8c0,15.2,12.3,27.5,27.5,27.5h249.2
	c15.2,0,27.5-12.3,27.5-27.5V27.5C1671.7,12.3,1659.4,0,1644.3,0L1644.3,0z"/>
<g>
	<linearGradient id="SVGID_1_" gradientUnits="userSpaceOnUse" x1="49.0069" y1="60.624" x2="230.2297" y2="60.624">
		<stop  offset="3.089112e-03" style="stop-color:#FF8C4D"/>
		<stop  offset="0.3886" style="stop-color:#FFA14D"/>
		<stop  offset="0.9322" style="stop-color:#FFA94C"/>
	</linearGradient>
	<path class="st4" d="M77.9,112.2c2.9-33.2,30.8-59.2,64.7-59.2c0.3,0,87.6,0,87.6,0C210.4,26.3,178.5,9,142.7,9
		C102.9,9,68,30.3,49,62.2L77.9,112.2z"/>
	<linearGradient id="SVGID_2_" gradientUnits="userSpaceOnUse" x1="226.2377" y1="59.1114" x2="189.1648" y2="196.8106">
		<stop  offset="0" style="stop-color:#FFA94C"/>
		<stop  offset="1" style="stop-color:#FFBB4E"/>
	</linearGradient>
	<path class="st5" d="M179.6,64.7c16.8,11.7,27.5,31.2,27.7,53.3c0.2,18.9-10.1,34.9-10.1,34.9l-42.3,73.5
		c54.4-6.2,96.6-52.3,96.6-108.3c0-19.4-5.1-37.6-13.9-53.3H179.6z"/>
	<linearGradient id="SVGID_3_" gradientUnits="userSpaceOnUse" x1="33.6084" y1="150.7935" x2="170.1801" y2="150.7935">
		<stop  offset="0" style="stop-color:#FF894C"/>
		<stop  offset="1" style="stop-color:#FCB44F"/>
	</linearGradient>
	<path class="st6" d="M170.2,176.9c-8.4,3.9-17.7,6.1-27.5,6.1c-25.8,0-48.1-15-58.6-36.8L42.7,74.5c-5.8,13.3-9.1,28.1-9.1,43.6
		c0,59.8,48.1,108.3,107.6,109L170.2,176.9z"/>
	<g>
		<g>
			<linearGradient id="SVGID_4_" gradientUnits="userSpaceOnUse" x1="90.6718" y1="118.043" x2="194.3073" y2="118.043">
				<stop  offset="3.089112e-03" style="stop-color:#FF8C4D"/>
				<stop  offset="0.3886" style="stop-color:#FFA14D"/>
				<stop  offset="0.9322" style="stop-color:#FFA94C"/>
			</linearGradient>
			<path class="st7" d="M142.5,169.9c-3.2,0-6.4-0.3-9.4-0.9c-1.4-0.3-2.3-1.6-2-2.9c0.3-1.4,1.6-2.3,2.9-2c2.8,0.5,5.7,0.8,8.5,0.8
				c25.8,0,46.8-21,46.8-46.8s-21-46.8-46.8-46.8s-46.8,21-46.8,46.8c0,3.8,0.5,7.6,1.4,11.3c0.2,0.7,0.4,1.4,0.6,2.1
				c0.4,1.3-0.4,2.7-1.7,3.1c-1.3,0.4-2.7-0.4-3.1-1.7c-0.2-0.8-0.4-1.5-0.6-2.3c-1-4.1-1.5-8.3-1.5-12.5
				c0-28.6,23.2-51.8,51.8-51.8c28.6,0,51.8,23.2,51.8,51.8C194.3,146.6,171.1,169.9,142.5,169.9z"/>
		</g>
		<linearGradient id="SVGID_5_" gradientUnits="userSpaceOnUse" x1="122.9902" y1="107.0896" x2="154.9318" y2="107.0896">
			<stop  offset="3.089112e-03" style="stop-color:#FF8C4D"/>
			<stop  offset="0.3886" style="stop-color:#FFA14D"/>
			<stop  offset="0.9322" style="stop-color:#FFA94C"/>
		</linearGradient>
		<path class="st8" d="M123.2,104.4h31.5c0.1,0,0.2,0.1,0.2,0.2v4.9c0,0.1-0.1,0.2-0.2,0.2h-31.5c-0.1,0-0.2-0.1-0.2-0.2v-4.9
			C123,104.5,123.1,104.4,123.2,104.4z"/>
		<g>
			<linearGradient id="SVGID_6_" gradientUnits="userSpaceOnUse" x1="103.9722" y1="118.0428" x2="180.0255" y2="118.0428">
				<stop  offset="3.089112e-03" style="stop-color:#FF8C4D"/>
				<stop  offset="0.3886" style="stop-color:#FFA14D"/>
				<stop  offset="0.9322" style="stop-color:#FFA94C"/>
			</linearGradient>
			<path class="st9" d="M142.5,156.6c-21.2,0-38.5-17.3-38.5-38.5s17.3-38.5,38.5-38.5c11.4,0,22.1,5,29.5,13.7c0.8,1,1.6,2,2.3,3
				c0.8,1.1,0.5,2.7-0.6,3.5c-1.1,0.8-2.7,0.5-3.5-0.6c-0.6-0.9-1.3-1.8-2-2.6c-6.4-7.6-15.7-11.9-25.6-11.9
				c-18.5,0-33.5,15-33.5,33.5c0,18.5,15,33.5,33.5,33.5c14.4,0,27.1-9.1,31.7-22.7c0.3-1,0.6-2,0.9-3c0.3-1.4,1.7-2.2,3-1.9
				c1.4,0.3,2.2,1.7,1.9,3c-0.3,1.1-0.6,2.3-1,3.4C173.7,146.1,159,156.6,142.5,156.6z"/>
		</g>
		<g>
			<linearGradient id="SVGID_7_" gradientUnits="userSpaceOnUse" x1="130.7345" y1="117.9143" x2="154.5865" y2="117.9143">
				<stop  offset="3.089112e-03" style="stop-color:#FF8C4D"/>
				<stop  offset="0.3886" style="stop-color:#FFA14D"/>
				<stop  offset="0.9322" style="stop-color:#FFA94C"/>
			</linearGradient>
			<path class="st10" d="M143.8,138.4c-2.5,0-4.9-0.6-7-1.9c-2.9-1.8-5-4.6-5.8-8c-0.2-0.8-0.3-1.6-0.3-2.7l0-25.9
				c0-1.4,1.1-2.5,2.5-2.5s2.5,1.1,2.5,2.5v25.9c0,0.6,0.1,1.1,0.2,1.5c0.5,2,1.7,3.7,3.5,4.8c3.2,2,8.3,1.3,10.7-1.4
				c0.9-1,2.5-1.2,3.6-0.2c1,0.9,1.2,2.5,0.2,3.6C151.5,136.9,147.7,138.4,143.8,138.4z"/>
		</g>
	</g>
	<linearGradient id="SVGID_8_" gradientUnits="userSpaceOnUse" x1="190.1153" y1="204.0715" x2="190.1513" y2="95.6447">
		<stop  offset="3.089112e-03" style="stop-color:#FF8C4D"/>
		<stop  offset="0.3886" style="stop-color:#FFA14D"/>
		<stop  offset="1" style="stop-color:#FFBB4E"/>
	</linearGradient>
	<path class="st11" d="M207.3,118c0.4,19-11.2,36.6-11.2,36.6l-41.1,71.7c39.4-8.2,70-44.9,70-86.7c0-32-19.5-60-45.3-75l0,0
		C196.6,76.5,206.8,96,207.3,118z"/>
	<linearGradient id="SVGID_9_" gradientUnits="userSpaceOnUse" x1="153.9102" y1="198.4696" x2="12.7142" y2="88.6906">
		<stop  offset="3.089112e-03" style="stop-color:#FF8C4D"/>
		<stop  offset="0.3886" style="stop-color:#FFA14D"/>
		<stop  offset="0.9322" style="stop-color:#FFA94C"/>
	</linearGradient>
	<path class="st12" d="M110,174.3c-9.2-5.2-16-12.7-21.5-21l-0.4-0.5c-1-1.6-2.4-3.2-3.3-4.8L42.7,74.5
		c-12.4,38.3,3.4,84.1,39.7,104.7c27.8,15.8,62,12.8,87.8-2.3l0,0C151.6,185.8,129.2,185.2,110,174.3z"/>
	<linearGradient id="SVGID_10_" gradientUnits="userSpaceOnUse" x1="181.9945" y1="44.3867" x2="69.5226" y2="82.8677">
		<stop  offset="3.089114e-03" style="stop-color:#FF8C4D"/>
		<stop  offset="0.4296" style="stop-color:#FCB44F"/>
		<stop  offset="1" style="stop-color:#FFBB4E"/>
	</linearGradient>
	<path class="st13" d="M109.2,62.3c17.3-10.6,36.4-9.2,36.4-9.2l84.7,0c-26.8-30-74.3-38.9-110.4-18c-27.7,16.1-41.9,46.8-41.9,77.1
		l0,0C79.2,91.5,92,72.8,109.2,62.3z"/>
</g>
</svg>
