<?xml version="1.0" encoding="utf-8"?>
<!-- Generator: Adobe Illustrator 22.0.0, SVG Export Plug-In . SVG Version: 6.00 Build 0)  -->
<svg version="1.1" id="Camada_1" xmlns="http://www.w3.org/2000/svg" xmlns:xlink="http://www.w3.org/1999/xlink" x="0px" y="0px"
	 viewBox="0 0 12 12" style="enable-background:new 0 0 12 12;" xml:space="preserve">
<style type="text/css">
	.st0{fill:#4385FF;}
</style>
<path class="st0" d="M11.7,1.7L7.4,6l4.2,4.3c0.4,0.4,0.4,1,0,1.4s-1,0.4-1.4,0l0,0L6,7.4l-4.2,4.3c-0.4,0.4-1,0.4-1.4,0l0,0
	c-0.4-0.4-0.4-1,0-1.4L4.6,6L0.3,1.7c-0.4-0.4-0.4-1,0-1.4s1-0.4,1.4,0l0,0L6,4.6l4.3-4.3c0.4-0.4,1-0.4,1.4,0l0,0
	C12.1,0.7,12.1,1.3,11.7,1.7z"/>
</svg>
