<?xml version="1.0" encoding="utf-8"?>
<!-- Generator: Adobe Illustrator 22.0.0, SVG Export Plug-In . SVG Version: 6.00 Build 0)  -->
<svg version="1.1" id="Camada_1" xmlns="http://www.w3.org/2000/svg" xmlns:xlink="http://www.w3.org/1999/xlink" x="0px" y="0px"
	 viewBox="0 0 14 14" style="enable-background:new 0 0 14 14;" xml:space="preserve">
<style type="text/css">
	.st0{fill:#4385FF;}
</style>
<path class="st0" d="M13,8H3.5l4.3,4.3c0.4,0.4,0.3,1-0.1,1.4s-1,0.4-1.4,0.1l-6-6C0.2,7.6,0.1,7.5,0.1,7.4C0,7.3,0,7.1,0,7
	s0-0.3,0.1-0.4c0-0.1,0.1-0.3,0.2-0.4l6-6c0.4-0.4,1-0.3,1.4,0.1s0.4,1,0.1,1.4L3.5,6H13c0.6,0,1,0.4,1,1S13.6,8,13,8z"/>
</svg>
