<?xml version="1.0" encoding="utf-8"?>
<!-- Generator: Adobe Illustrator 22.0.0, SVG Export Plug-In . SVG Version: 6.00 Build 0)  -->
<svg version="1.1" id="Camada_1" xmlns="http://www.w3.org/2000/svg" xmlns:xlink="http://www.w3.org/1999/xlink" x="0px" y="0px"
	 viewBox="0 0 14 12" style="enable-background:new 0 0 14 12;" xml:space="preserve">
<style type="text/css">
	.st0{fill:#4385FF;}
</style>
<path class="st0" d="M13,7H1C0.4,7,0,6.6,0,6s0.4-1,1-1h12c0.6,0,1,0.4,1,1S13.6,7,13,7z M13,2H1C0.4,2,0,1.6,0,1s0.4-1,1-1h12
	c0.6,0,1,0.4,1,1S13.6,2,13,2z M1,10h12c0.6,0,1,0.4,1,1s-0.4,1-1,1H1c-0.6,0-1-0.4-1-1S0.4,10,1,10z"/>
</svg>
