<?xml version="1.0" encoding="utf-8"?>
<!-- Generator: Adobe Illustrator 22.0.0, SVG Export Plug-In . SVG Version: 6.00 Build 0)  -->
<svg version="1.1" id="Camada_1" xmlns="http://www.w3.org/2000/svg" xmlns:xlink="http://www.w3.org/1999/xlink" x="0px" y="0px"
	 viewBox="0 0 4 24" style="enable-background:new 0 0 4 24;" xml:space="preserve">
<style type="text/css">
	.st0{fill:#4385FF;}
</style>
<path class="st0" d="M2,14c-1.1,0-2-0.8-2-2s0.8-2,2-2h0.1c1.1,0,2,0.9,2,2C3.9,13.1,3.1,14,2,14z M2,4C0.9,4,0,3.1,0,2s0.8-2,2-2
	C1.9,0,2,0,2,0c1.1,0,2,0.9,2,2C3.9,3.1,3.1,4,2,4z M2,20c1.1,0,2,0.8,2,2c0,1.1-0.8,2-2,2H1.9c-1.1,0-2-0.9-2-2
	C0.1,20.9,0.9,20,2,20z"/>
</svg>
