<?xml version="1.0" encoding="utf-8"?>
<!-- Generator: Adobe Illustrator 22.0.0, SVG Export Plug-In . SVG Version: 6.00 Build 0)  -->
<svg version="1.1" id="Camada_1" xmlns="http://www.w3.org/2000/svg" xmlns:xlink="http://www.w3.org/1999/xlink" x="0px" y="0px"
	 viewBox="0 0 21 5" style="enable-background:new 0 0 21 5;" xml:space="preserve">
<style type="text/css">
	.st0{fill:#4385FF;}
</style>
<path class="st0" d="M18.5,5C17.1,5,16,3.9,16,2.5S17.1,0,18.5,0S21,1.1,21,2.5S19.9,5,18.5,5z M10.5,5C9.1,5,8,3.9,8,2.5
	S9.1,0,10.5,0S13,1.1,13,2.5S11.9,5,10.5,5z M2.5,5C1.1,5,0,3.9,0,2.5S1.1,0,2.5,0S5,1.1,5,2.5S3.9,5,2.5,5z"/>
</svg>
